HIERARCHY
ROOT Hips
{
 OFFSET 0.000000 0.000000 0.000000
 CHANNELS 6 Xposition Yposition Zposition Yrotation Xrotation Zrotation
 JOINT Chest
 {
  OFFSET 0.000000 9.585900 0.002600
  CHANNELS 3 Yrotation Xrotation Zrotation
  JOINT Chest2
  {
   OFFSET 0.000000 9.601200 -0.005300
   CHANNELS 3 Yrotation Xrotation Zrotation
   JOINT Chest3
   {
    OFFSET 0.000000 9.561800 0.000000
    CHANNELS 3 Yrotation Xrotation Zrotation
    JOINT Chest4
    {
     OFFSET 0.000000 9.552100 0.000000
     CHANNELS 3 Yrotation Xrotation Zrotation
     JOINT Neck
     {
      OFFSET 0.000000 14.453000 0.000000
      CHANNELS 3 Yrotation Xrotation Zrotation
      JOINT Head
      {
       OFFSET 0.000000 8.936500 -0.011300
       CHANNELS 3 Yrotation Xrotation Zrotation
       End Site
       {
        OFFSET 0.000000 17.073600 -0.006000
       }
      }
     }
     JOINT RightCollar
     {
      OFFSET -2.921100 9.558500 0.000000
      CHANNELS 3 Yrotation Xrotation Zrotation
      JOINT RightShoulder
      {
       OFFSET -13.519700 0.000000 0.000000
       CHANNELS 3 Yrotation Xrotation Zrotation
       JOINT RightElbow
       {
        OFFSET 0.000000 -29.696600 0.000000
        CHANNELS 3 Yrotation Xrotation Zrotation
        JOINT RightWrist
        {
         OFFSET 0.000000 -24.004700 0.000000
         CHANNELS 3 Yrotation Xrotation Zrotation
         End Site
         {
          OFFSET 0.000000 -17.728500 0.000000
         }
        }
       }
      }
     }
     JOINT LeftCollar
     {
      OFFSET 2.921100 9.558500 0.000000
      CHANNELS 3 Yrotation Xrotation Zrotation
      JOINT LeftShoulder
      {
       OFFSET 13.519700 0.000000 0.000000
       CHANNELS 3 Yrotation Xrotation Zrotation
       JOINT LeftElbow
       {
        OFFSET 0.000000 -29.696600 0.000000
        CHANNELS 3 Yrotation Xrotation Zrotation
        JOINT LeftWrist
        {
         OFFSET 0.000000 -24.004700 0.000000
         CHANNELS 3 Yrotation Xrotation Zrotation
         End Site
         {
          OFFSET 0.000000 -17.728500 0.000000
         }
        }
       }
      }
     }
    }
   }
  }
 }
 JOINT RightHip
 {
  OFFSET -7.771700 -0.012900 -0.001300
  CHANNELS 3 Yrotation Xrotation Zrotation
  JOINT RightKnee
  {
   OFFSET 0.000000 -40.869800 0.001200
   CHANNELS 3 Yrotation Xrotation Zrotation
   JOINT RightAnkle
   {
    OFFSET 0.000000 -39.717900 0.002100
    CHANNELS 3 Yrotation Xrotation Zrotation
    JOINT RightToe
    {
     OFFSET 0.000000 -4.965400 11.033500
     CHANNELS 3 Yrotation Xrotation Zrotation
     End Site
     {
      OFFSET 0.000000 -1.423100 5.872300
     }
    }
   }
  }
 }
 JOINT LeftHip
 {
  OFFSET 7.771700 -0.012900 -0.001300
  CHANNELS 3 Yrotation Xrotation Zrotation
  JOINT LeftKnee
  {
   OFFSET 0.000000 -40.869800 0.001200
   CHANNELS 3 Yrotation Xrotation Zrotation
   JOINT LeftAnkle
   {
    OFFSET 0.000000 -39.717900 0.002100
    CHANNELS 3 Yrotation Xrotation Zrotation
    JOINT LeftToe
    {
     OFFSET 0.000000 -4.965400 11.033500
     CHANNELS 3 Yrotation Xrotation Zrotation
     End Site
     {
      OFFSET 0.000000 -1.423100 5.872300
     }
    }
   }
  }
 }
}
MOTION
Frames: 15
Frame Time: 0.008333
0.000000 85.388000 0.000000 0.000000 -5.767877 0.000000 0.000000 11.653817 0.000000 0.000000 -5.885947 0.000000 0.000000 -0.000000 0.000000 0.000000 -0.000000 0.000000 0.000000 12.528835 0.000000 0.000000 0.711642 0.000000 0.000000 -0.000000 0.000000 0.000000 0.000000 -90.000000 0.000000 -2.309062 0.000000 0.000000 2.309062 0.000000 0.000000 -0.000000 0.000000 0.000000 -0.000000 90.000000 0.000000 -2.309062 0.000000 0.000000 2.309062 0.000000 0.000000 8.520406 0.000000 0.000000 1.905762 0.000000 -0.000000 -4.658285 0.000000 0.000000 -0.000000 0.000000 0.000000 8.520406 0.000000 0.000000 1.905762 0.000000 -0.000000 -4.658285 0.000000 0.000000 -0.000000 0.000000
-56.202209 54.992261 48.820062 -177.948870 -31.772893 -10.478043 0.381072 14.084494 5.729255 -0.030331 7.992685 2.065081 0.003722 9.955124 2.584029 -0.029782 7.997692 2.064502 2.069758 18.992643 -0.192778 2.211492 -5.670390 -0.674863 -0.769369 2.153182 -3.173767 -15.434046 -4.055259 4.509055 -33.735960 -82.985991 47.991248 8.440601 -10.098086 -8.514165 -10.205742 4.731848 -3.520973 9.054162 -3.505393 -0.844446 -109.502014 -80.869063 117.660110 18.524600 -15.306934 -0.262457 -18.179931 -35.790168 3.026402 -1.718161 87.003426 -4.973561 1.447539 -16.797135 1.671627 -0.042261 0.446292 -0.016031 -14.465453 -46.749988 14.224520 166.281540 78.972709 161.274727 -1.513207 -15.546715 2.123772 -1.169652 -2.876858 -0.544138
-56.200349 54.992253 48.819340 -177.950551 -31.788198 -10.484714 0.378221 14.050915 5.734383 -0.035068 7.983903 2.062187 0.001725 9.979644 2.583319 -0.023058 8.021257 2.065067 1.990840 18.947163 -0.207590 2.167571 -5.667648 -0.672966 -0.763157 2.126686 -3.158306 -15.430813 -4.060314 4.487517 -33.901864 -82.980302 48.155034 8.429047 -10.101494 -8.511817 -10.193978 4.714522 -3.522162 9.036899 -3.501736 -0.837803 -109.487127 -80.924239 117.629546 18.579048 -15.329007 -0.191043 -18.138831 -35.771904 3.037840 -2.201673 86.997698 -5.460839 1.456074 -16.800745 1.694890 -0.066343 0.446790 -0.015106 -14.493904 -46.728612 14.231205 166.231049 78.968351 161.224063 -1.515441 -15.550388 2.109007 -1.160525 -2.873670 -0.544356
-56.199823 54.992813 48.818784 -177.956088 -31.810302 -10.487324 0.376651 14.050541 5.736501 -0.037174 7.980856 2.060646 0.006446 9.989359 2.582775 -0.029779 7.998836 2.062208 1.930246 18.941041 -0.216896 2.107322 -5.682013 -0.671338 -0.753310 2.143831 -3.146359 -15.425818 -4.115983 4.474782 -34.355375 -82.981425 48.617403 8.402788 -10.116898 -8.491283 -10.176223 4.730005 -3.526695 9.027573 -3.490372 -0.834433 -109.520092 -80.965580 117.643277 18.594947 -15.375715 -0.155152 -18.093455 -35.749437 3.051246 -2.836076 86.995002 -6.100639 1.439087 -16.799503 1.729043 -0.068380 0.444526 -0.017431 -14.567313 -46.694823 14.243030 166.175650 78.962837 161.152403 -1.486594 -15.548035 2.071134 -1.155684 -2.875500 -0.548675
-56.200872 54.992069 48.822021 -177.949511 -31.813477 -10.495135 0.357626 14.035167 5.735528 -0.030815 7.989892 2.061094 0.006555 9.986327 2.582246 -0.046254 7.967279 2.059710 1.870626 18.941665 -0.228844 2.043557 -5.705226 -0.670383 -0.734274 2.183872 -3.143571 -15.428502 -4.188501 4.473077 -34.674983 -82.987803 48.946237 8.377818 -10.134530 -8.466110 -10.164692 4.757469 -3.532877 9.038954 -3.472970 -0.836015 -109.640475 -81.004557 117.755576 18.561881 -15.442100 -0.158686 -18.044005 -35.743620 3.079754 -3.901154 86.983197 -7.179718 1.415584 -16.797349 1.788599 -0.067001 0.444824 -0.020091 -14.664098 -46.675900 14.250818 166.216077 78.974426 161.194832 -1.466348 -15.558697 2.002220 -1.112345 -2.853559 -0.531672
-56.207771 54.989380 48.829394 -177.931533 -31.796299 -10.484384 0.317033 14.002485 5.708183 -0.023573 7.999589 2.061346 -0.025239 9.953775 2.575483 -0.018258 7.999158 2.059510 1.791620 18.906777 -0.241716 1.975874 -5.736594 -0.669493 -0.727873 2.167909 -3.121143 -15.420246 -4.317567 4.462611 -34.307487 -82.942823 48.561807 8.358061 -10.152896 -8.445702 -10.168846 4.767269 -3.530733 9.057197 -3.462035 -0.842988 -109.530021 -80.941060 117.656816 18.603370 -15.522466 -0.190064 -18.044502 -35.769362 3.062636 -3.995630 86.982312 -7.280396 1.414583 -16.793302 1.793475 -0.068179 0.445815 -0.018419 -14.700664 -46.685301 14.221670 166.302271 78.993442 161.291724 -1.500036 -15.595388 1.962524 -1.056118 -2.803181 -0.493899
-56.212997 54.989128 48.836662 -177.927470 -31.798950 -10.490021 0.295536 13.986854 5.704876 -0.024831 7.999361 2.059320 -0.018158 9.966140 2.575396 -0.032704 7.987725 2.056744 1.724089 18.879974 -0.253889 1.904480 -5.773228 -0.667639 -0.710996 2.168081 -3.100687 -15.399905 -4.371060 4.451692 -34.240357 -82.975648 48.477230 8.335464 -10.176738 -8.427219 -10.154937 4.788273 -3.532305 9.073707 -3.445904 -0.847789 -109.584710 -80.921584 117.710815 18.583330 -15.630628 -0.213231 -18.016762 -35.767551 3.080422 -4.629157 86.971389 -7.927351 1.404933 -16.779912 1.827837 -0.067512 0.443644 -0.016814 -14.743107 -46.675771 14.224684 166.347276 79.009211 161.337824 -1.508045 -15.597567 1.940269 -1.031455 -2.786464 -0.477928
-56.219899 54.991008 48.843551 -177.939397 -31.824225 -10.491348 0.295738 13.994958 5.706894 -0.050006 7.978911 2.053408 0.009879 9.996468 2.576467 -0.044585 7.980995 2.055612 1.651839 18.847475 -0.266593 1.831100 -5.811866 -0.664114 -0.697741 2.164451 -3.079663 -15.382449 -4.391238 4.432375 -34.315146 -83.039157 48.539726 8.307138 -10.204613 -8.405541 -10.147873 4.808235 -3.529147 9.094647 -3.433790 -0.858074 -109.511491 -80.844969 117.647689 18.643128 -15.737020 -0.230409 -17.946614 -35.745099 3.093940 -5.514006 86.948734 -8.828623 1.420578 -16.761493 1.863795 -0.096916 0.439383 -0.000291 -14.803053 -46.645360 14.241950 166.344272 79.014872 161.317105 -1.515226 -15.570195 1.931280 -0.994060 -2.801466 -0.490200
-56.225771 54.994166 48.852392 -177.948340 -31.854964 -10.513937 0.309842 14.018375 5.732998 -0.064828 7.966278 2.050173 0.006855 9.998640 2.573793 -0.045604 7.984099 2.053992 1.578617 18.816849 -0.276096 1.756941 -5.850001 -0.659863 -0.687124 2.159378 -3.060789 -15.359592 -4.408333 4.416441 -34.245662 -83.062862 48.455352 8.288000 -10.276363 -8.384567 -10.142540 4.831751 -3.520586 9.113885 -3.434565 -0.873375 -109.438518 -80.786979 117.585508 18.712433 -15.837470 -0.228494 -17.908555 -35.707980 3.101358 -5.653456 86.923343 -8.953619 1.425349 -16.739309 1.872379 -0.083606 0.439329 -0.001553 -14.883217 -46.612944 14.290010 166.291532 79.007539 161.233665 -1.486376 -15.524386 1.919909 -1.023063 -2.836387 -0.489611
-56.229669 54.999816 48.861604 -177.976162 -31.907038 -10.551158 0.337047 14.045842 5.780021 -0.068396 7.970020 2.048439 0.004645 10.001610 2.571684 -0.062134 7.982318 2.054490 1.516310 18.794342 -0.286988 1.680810 -5.886081 -0.655007 -0.667012 2.161466 -3.047079 -15.328844 -4.458978 4.415079 -33.939363 -83.069493 48.127244 8.244246 -10.360515 -8.361554 -10.115080 4.854587 -3.522194 9.134178 -3.413366 -0.880466 -109.533070 -80.751805 117.662643 18.783492 -15.931968 -0.195747 -17.872507 -35.641526 3.152355 -6.046802 86.885518 -9.355773 1.429224 -16.708801 1.898223 -0.080116 0.438006 -0.005619 -14.946650 -46.558491 14.354059 166.209390 79.003738 161.130685 -1.434138 -15.460496 1.913956 -1.073046 -2.888015 -0.499848
-56.239564 55.002429 48.877427 -177.977257 -31.924696 -10.575550 0.329250 14.042053 5.797666 -0.062447 7.984378 2.050094 -0.027178 9.991495 2.571243 -0.036894 7.997958 2.050542 1.431814 18.766694 -0.293838 1.601996 -5.918222 -0.648499 -0.672029 2.148612 -3.034331 -15.307252 -4.505004 4.414893 -33.774733 -83.106283 47.938683 8.150331 -10.424889 -8.319860 -10.108825 4.872271 -3.520826 9.147792 -3.398667 -0.882098 -109.804060 -80.780500 117.906611 18.809493 -16.015078 -0.145516 -17.867961 -35.617246 3.186612 -6.314464 86.851844 -9.640766 1.414700 -16.678301 1.917776 -0.083993 0.438939 -0.008710 -15.007545 -46.542932 14.378106 166.098042 79.006451 161.017625 -1.429921 -15.422911 1.893535 -1.064995 -2.904180 -0.496805
-56.249046 55.006647 48.894394 -177.989632 -31.955157 -10.605056 0.334145 14.052582 5.823755 -0.071079 7.988462 2.048877 -0.027888 10.002002 2.574065 -0.031514 7.999144 2.051177 1.353139 18.752558 -0.302447 1.521441 -5.944950 -0.640823 -0.659930 2.151911 -3.036234 -15.306091 -4.553996 4.432426 -34.127782 -83.152522 48.276679 8.050339 -10.442261 -8.276536 -10.094693 4.899851 -3.523981 9.159741 -3.393112 -0.884110 -110.017661 -80.795258 118.103810 18.869015 -16.074282 -0.110288 -17.857686 -35.578281 3.226711 -6.433571 86.812796 -9.776152 1.401572 -16.641298 1.944771 -0.084102 0.438625 -0.014146 -15.065344 -46.521526 14.398515 165.880296 78.995994 160.806424 -1.396193 -15.360698 1.868712 -1.086735 -2.945782 -0.506170
-56.259789 55.010940 48.914080 -178.005333 -31.983443 -10.630960 0.312562 14.045952 5.830001 -0.053543 8.013614 2.058665 -0.016064 10.015113 2.577992 -0.038572 8.001685 2.052046 1.276465 18.744210 -0.308251 1.439114 -5.965014 -0.632183 -0.679226 2.158691 -3.030875 -15.282084 -4.615711 4.446527 -34.257556 -83.120983 48.412708 7.954245 -10.517273 -8.253933 -10.074193 4.920463 -3.527239 9.176312 -3.383459 -0.882789 -110.332242 -80.855121 118.365791 18.881072 -16.131516 -0.067824 -17.811752 -35.546395 3.246251 -6.466674 86.773244 -9.799012 1.380707 -16.598217 1.972747 -0.070021 0.436746 -0.019166 -15.083163 -46.496143 14.416124 165.717953 79.003608 160.662349 -1.414222 -15.332525 1.849595 -1.068854 -2.950242 -0.497499
-56.269386 55.017442 48.933514 -178.035997 -32.031663 -10.660140 0.333772 14.073905 5.863023 -0.041293 8.026988 2.064140 -0.010221 10.019794 2.579375 -0.053702 8.013273 2.058688 1.196650 18.739439 -0.315579 1.354247 -5.977461 -0.621656 -0.686170 2.156561 -3.034735 -15.268349 -4.669596 4.466591 -34.469794 -83.073767 48.631237 7.857082 -10.575246 -8.240023 -10.054667 4.926832 -3.531779 9.192380 -3.365242 -0.879354 -110.641697 -80.921084 118.613050 18.874787 -16.178275 -0.037911 -17.782273 -35.490670 3.296960 -6.651846 86.724706 -10.014738 1.398358 -16.551000 2.005733 -0.094443 0.433226 -0.021969 -15.084196 -46.444391 14.449030 165.631961 79.018719 160.592242 -1.438051 -15.315915 1.834863 -1.039414 -2.946532 -0.488779
-56.291835 55.014800 48.965600 -178.001574 -31.984976 -10.645041 0.262906 14.019299 5.814252 -0.028860 8.040825 2.069763 -0.020393 10.030244 2.582167 -0.052724 8.024288 2.061536 1.118069 18.739878 -0.322563 1.266682 -5.982557 -0.609273 -0.680869 2.145588 -3.042595 -15.270330 -4.711989 4.487242 -34.667463 -83.024567 48.841821 7.767583 -10.608489 -8.242967 -10.034855 4.915523 -3.538266 9.208204 -3.285961 -0.854657 -111.179304 -80.964374 119.103264 18.869384 -16.208942 -0.039383 -17.801363 -35.554382 3.271716 -6.604773 86.699584 -9.991058 1.392343 -16.516083 2.034637 -0.094951 0.437983 -0.025861 -15.099740 -46.501375 14.388407 165.425986 79.050032 160.413879 -1.512940 -15.320490 1.799049 -0.960676 -2.891082 -0.457150
